<svg xmlns="http://www.w3.org/2000/svg" xml:space="preserve" version="1.0" style="fill-rule:evenodd" viewBox="0 0 368 380" clip-rule="evenodd">
    <path d="m276 51 41-41h67v67l-50 49c-6-21-17-39-33-54-7-8-16-15-25-21zm-80-5c36 0 69 15 93 38 23 24 38 57 38 93 0 25-7 49-20 69-33 53-13 144-109 144-25 0-47-10-63-26-3-3-6-6-9-10l22-21c2 3 5 7 8 10 11 10 26 17 42 17 66 0 50-77 83-130 10-15 16-34 16-53 0-28-11-53-29-72-19-18-44-29-72-29-27 0-53 11-71 29-16 17-26 38-29 60l-27-17c5-24 17-46 35-64 24-23 56-38 92-38zm-71 92c4-7 8-13 14-19 15-15 35-24 57-24 23 0 43 9 58 24 14 15 24 35 24 58 0 22-10 42-24 57l-13-13c11-11 18-27 18-44 0-18-7-33-18-45-12-11-27-18-45-18-17 0-33 7-44 18-4 5-8 9-11 15l-16-9zm75 122L83 377H16v-66l101-101 83 50z" style="fill:#000" transform="translate(-16 -10)"/>
</svg>
